# xmcd
#
# Track frame offsets:
#	150
#	18496
#	38800
#	53385
#	70042
#	85267
#	102138
#	116887
#	132134
#	149986
#	170299
#	188151
#	207970
#	223179
#	241898
#	275424
#
# Disc length: 4249 seconds
#
# Revision: 1
# Processed by: cddbd v1.5.2PL0 Copyright (c) Steve Scherf et al.
# Submitted via: audiograbber 1.83.01
#
DISCID=e8109710
DTITLE=All Star Karaoke - ASK-57 - Disk1
DYEAR=1900
DGENRE=Country
TTITLE0=Alan Jackson - Drive
TTITLE1=Alan Jackson - Remember When
TTITLE2=Andy Griggs - Tonight I Want To Be Your Man
TTITLE3=Big and Rich - Save A Horse
TTITLE4=Blake Shelton - Goodbye Time
TTITLE5=Brad Paisley - Celebrity
TTITLE6=Brad Paisley - I'm Gonna Miss Her
TTITLE7=Brian McComas - 99.9 Sure
TTITLE8=Brooks and Dunn - Its Getting Better All The Time
TTITLE9=Dierks Bentley - Come A Little Closer
TTITLE10=Faith Hill - Mississipi Girl
TTITLE11=Garth Brooks - Wrapped Up In You
TTITLE12=Getchen Wilson - Here For The Party
TTITLE13=Gretchen Wilson - When I Think About Cheatin
TTITLE14=Keith Urban - You'll Think Of Me
TTITLE15=Data - Data Track
EXTD=
EXTT0=
EXTT1=
EXTT2=
EXTT3=
EXTT4=
EXTT5=
EXTT6=
EXTT7=
EXTT8=
EXTT9=
EXTT10=
EXTT11=
EXTT12=
EXTT13=
EXTT14=
EXTT15=
PLAYORDER=
